<svg width="1024" height="1024" viewBox="0 0 1024 1024" fill="none" xmlns="http://www.w3.org/2000/svg">
  <!-- Background Toolbox Shape -->
  <rect x="150" y="320" width="724" height="500" rx="60" fill="#0078d4"/>
  <path d="M380 320V230C380 191.34 411.34 160 450 160H574C612.66 160 644 191.34 644 230V320" stroke="#0078d4" stroke-width="60" stroke-linecap="round"/>
  
  <!-- Minimalist Wrench (Left) -->
  <path d="M320 520L440 640" stroke="white" stroke-width="50" stroke-linecap="round"/>
  <path d="M280 480C250 450 250 400 280 370L340 430L380 390L320 330C350 300 400 300 430 330L320 440" fill="white"/>
  
  <!-- Minimalist Gear (Right) -->
  <circle cx="680" cy="580" r="100" stroke="white" stroke-width="45"/>
  <circle cx="680" cy="580" r="35" fill="white"/>
  <g stroke="white" stroke-width="40" stroke-linecap="round">
    <path d="M680 440V480"/>
    <path d="M680 680V720"/>
    <path d="M540 580H580"/>
    <path d="M780 580H820"/>
    <path d="M581 481L609 509"/>
    <path d="M751 651L779 679"/>
    <path d="M581 679L609 651"/>
    <path d="M751 509L779 481"/>
  </g>
  
  <!-- Central Tool Line (Optional separation) -->
  <rect x="150" y="520" width="724" height="10" fill="rgba(255,255,255,0.1)"/>
</svg>
